<svg width="25" height="23" viewBox="0 0 25 23" fill="none" xmlns="http://www.w3.org/2000/svg">
<path d="M10.6972 10.0156H14.1656C14.1154 6.96512 11.6082 4.85901 7.79712 4.85901C4.04458 4.85901 1.29494 6.93169 1.31166 10.0407C1.3033 12.5647 3.08346 14.0105 5.97518 14.7042L7.83891 15.1722C9.70265 15.6235 10.739 16.1584 10.7473 17.3118C10.739 18.5654 9.55221 19.4179 7.71355 19.4179C5.8331 19.4179 4.47917 18.5487 4.36217 16.8354H0.860352C0.952285 20.5378 3.60163 22.4517 7.75534 22.4517C11.9341 22.4517 14.3912 20.4542 14.3996 17.3201C14.3912 14.4702 12.2433 12.9575 9.26805 12.2889L7.73026 11.9211C6.24262 11.5785 4.99734 11.0269 5.02242 9.79833C5.02242 8.69513 6.00025 7.88445 7.77205 7.88445C9.50207 7.88445 10.5635 8.67006 10.6972 10.0156Z" fill="white"/>
<path d="M19.5507 10.3023H16.3182V22.2093H19.5507V10.3023Z" fill="white"/>
<path d="M18.3458 0.906982H17.1627L15.6888 1.84012V2.9564L17.0522 2.10175H17.0871V6.86047H18.3458V0.906982Z" fill="white"/>
<path d="M19.6707 5.81396H22.5282V6.86047H23.7317V5.81396H24.4701V4.80524H23.7317V0.906982H22.1561L19.6707 4.82268V5.81396ZM22.5515 4.80524H20.9381V4.75872L22.505 2.27907H22.5515V4.80524Z" fill="white"/>
</svg>
